<?xml version="1.0" encoding="UTF-8"?>
<svg width="495px" height="75px" viewBox="0 0 495 75" version="1.1" xmlns="http://www.w3.org/2000/svg" xmlns:xlink="http://www.w3.org/1999/xlink">
    <!-- Generator: Sketch 55.2 (78181) - https://sketchapp.com -->
    <title>logo-pair-light-outline copy--1.5x</title>
    <desc>Created with Sketch.</desc>
    <g id="Page-1" stroke="none" stroke-width="1" fill="none" fill-rule="evenodd">
        <g id="Logo-Dark" transform="translate(-47.000000, -317.000000)">
            <g id="logo-pair-light-outline-copy" transform="translate(47.000000, 317.000000)">
                <g id="Group">
                    <path d="M155.496,55 L155.496,23.704 L162.552,23.704 L162.552,55 L155.496,55 Z M171.444,55 L171.444,23.704 L178.692,23.704 L186.852,39.256 L189.924,46.168 L190.116,46.168 C189.955999,44.5039917 189.772001,42.6480102 189.564,40.6 C189.355999,38.5519898 189.252,36.6000093 189.252,34.744 L189.252,23.704 L195.972,23.704 L195.972,55 L188.724,55 L180.564,39.4 L177.492,32.584 L177.3,32.584 C177.460001,34.3120086 177.643999,36.1679901 177.852,38.152 C178.060001,40.1360099 178.164,42.0559907 178.164,43.912 L178.164,55 L171.444,55 Z M204.864,55 L204.864,23.704 L213.696,23.704 C216.096012,23.704 218.25599,24.007997 220.176,24.616 C222.09601,25.224003 223.743993,26.1599937 225.12,27.424 C226.496007,28.6880063 227.551996,30.2959902 228.288,32.248 C229.024004,34.2000098 229.392,36.5199866 229.392,39.208 C229.392,41.8960134 229.024004,44.2319901 228.288,46.216 C227.551996,48.2000099 226.512007,49.8399935 225.168,51.136 C223.823993,52.4320065 222.216009,53.3999968 220.344,54.04 C218.471991,54.6800032 216.384012,55 214.08,55 L204.864,55 Z M211.92,49.288 L213.264,49.288 C214.608007,49.288 215.823995,49.1120018 216.912,48.76 C218.000005,48.4079982 218.927996,47.8400039 219.696,47.056 C220.464004,46.2719961 221.063998,45.2400064 221.496,43.96 C221.928002,42.6799936 222.144,41.0960094 222.144,39.208 C222.144,37.3519907 221.928002,35.7920063 221.496,34.528 C221.063998,33.2639937 220.464004,32.2560038 219.696,31.504 C218.927996,30.7519962 218.000005,30.2160016 216.912,29.896 C215.823995,29.5759984 214.608007,29.416 213.264,29.416 L211.92,29.416 L211.92,49.288 Z M236.844,55 L236.844,23.704 L243.9,23.704 L243.9,55 L236.844,55 Z M252.792,55 L252.792,23.704 L272.376,23.704 L272.376,29.656 L259.848,29.656 L259.848,35.944 L270.504,35.944 L270.504,41.848 L259.848,41.848 L259.848,49.048 L272.856,49.048 L272.856,55 L252.792,55 Z M291.696,55 L291.696,23.704 L298.752,23.704 L298.752,35.752 L309.552,35.752 L309.552,23.704 L316.656,23.704 L316.656,55 L309.552,55 L309.552,41.944 L298.752,41.944 L298.752,55 L291.696,55 Z M332.892,39.16 L332.124,42.04 L338.796,42.04 L338.076,39.16 C337.627998,37.5919922 337.196002,35.9280088 336.78,34.168 C336.363998,32.4079912 335.948002,30.7120082 335.532,29.08 L335.34,29.08 C334.955998,30.7440083 334.564002,32.4479913 334.164,34.192 C333.763998,35.9360087 333.340002,37.5919922 332.892,39.16 Z M321.564,55 L331.356,23.704 L339.852,23.704 L349.644,55 L342.156,55 L340.236,47.56 L330.684,47.56 L328.764,55 L321.564,55 Z M367.128,55.576 C365.14399,55.576 363.272009,55.2320034 361.512,54.544 C359.751991,53.8559966 358.208007,52.8400067 356.88,51.496 C355.551993,50.1519933 354.504004,48.48001 353.736,46.48 C352.967996,44.47999 352.584,42.1680131 352.584,39.544 C352.584,36.951987 352.983996,34.6400102 353.784,32.608 C354.584,30.5759898 355.655993,28.856007 357,27.448 C358.344007,26.039993 359.911991,24.9680037 361.704,24.232 C363.496009,23.4959963 365.38399,23.128 367.368,23.128 C369.38401,23.128 371.191992,23.5359959 372.792,24.352 C374.392008,25.1680041 375.719995,26.1199946 376.776,27.208 L373.032,31.72 C372.231996,30.9839963 371.392004,30.3840023 370.512,29.92 C369.631996,29.4559977 368.632006,29.224 367.512,29.224 C366.455995,29.224 365.456005,29.4559977 364.512,29.92 C363.567995,30.3840023 362.752003,31.0479957 362.064,31.912 C361.375997,32.7760043 360.832002,33.8319938 360.432,35.08 C360.031998,36.3280062 359.832,37.7359922 359.832,39.304 C359.832,42.5360162 360.519993,45.0399911 361.896,46.816 C363.272007,48.5920089 365.111988,49.48 367.416,49.48 C368.696006,49.48 369.839995,49.2000028 370.848,48.64 C371.856005,48.0799972 372.743996,47.3840042 373.512,46.552 L377.256,50.968 C374.631987,54.0400154 371.256021,55.576 367.128,55.576 Z M383.508,55 L383.508,23.704 L390.564,23.704 L390.564,36.52 L390.756,36.52 L400.068,23.704 L407.844,23.704 L398.388,36.184 L409.572,55 L401.844,55 L394.212,41.8 L390.564,46.6 L390.564,55 L383.508,55 Z M414.48,55 L414.48,23.704 L434.064,23.704 L434.064,29.656 L421.536,29.656 L421.536,35.944 L432.192,35.944 L432.192,41.848 L421.536,41.848 L421.536,49.048 L434.544,49.048 L434.544,55 L414.48,55 Z M442.284,55 L442.284,23.704 L453.564,23.704 C455.228008,23.704 456.787993,23.8639984 458.244,24.184 C459.700007,24.5040016 460.971995,25.0399962 462.06,25.792 C463.148005,26.5440038 464.011997,27.5439938 464.652,28.792 C465.292003,30.0400062 465.612,31.5919907 465.612,33.448 C465.612,35.7520115 465.108005,37.6479926 464.1,39.136 C463.091995,40.6240074 461.740008,41.7359963 460.044,42.472 L467.148,55 L459.228,55 L453.228,43.72 L449.34,43.72 L449.34,55 L442.284,55 Z M449.34,38.104 L452.988,38.104 C454.844009,38.104 456.259995,37.7120039 457.236,36.928 C458.212005,36.1439961 458.7,34.9840077 458.7,33.448 C458.7,31.9119923 458.212005,30.840003 457.236,30.232 C456.259995,29.623997 454.844009,29.32 452.988,29.32 L449.34,29.32 L449.34,38.104 Z M482.76,55.576 C480.71199,55.576 478.67201,55.2000038 476.64,54.448 C474.60799,53.6959962 472.792008,52.5680075 471.192,51.064 L475.224,46.216 C476.344006,47.1760048 477.583993,47.959997 478.944,48.568 C480.304007,49.176003 481.639993,49.48 482.952,49.48 C484.424007,49.48 485.519996,49.2080027 486.24,48.664 C486.960004,48.1199973 487.32,47.3840046 487.32,46.456 C487.32,45.9759976 487.216001,45.5600018 487.008,45.208 C486.799999,44.8559982 486.496002,44.5440014 486.096,44.272 C485.695998,43.9999986 485.216003,43.7440012 484.656,43.504 L482.808,42.712 L478.728,40.984 C477.927996,40.6639984 477.152004,40.2480026 476.4,39.736 C475.647996,39.2239974 474.976003,38.6240034 474.384,37.936 C473.791997,37.2479966 473.320002,36.4480046 472.968,35.536 C472.615998,34.6239954 472.44,33.5920058 472.44,32.44 C472.44,31.1599936 472.711997,29.9520057 473.256,28.816 C473.800003,27.6799943 474.567995,26.6880042 475.56,25.84 C476.552005,24.9919958 477.727993,24.3280024 479.088,23.848 C480.448007,23.3679976 481.943992,23.128 483.576,23.128 C485.400009,23.128 487.199991,23.4799965 488.976,24.184 C490.752009,24.8880035 492.311993,25.9119933 493.656,27.256 L490.056,31.72 C489.031995,30.919996 488.008005,30.3040022 486.984,29.872 C485.959995,29.4399978 484.824006,29.224 483.576,29.224 C482.359994,29.224 481.392004,29.4719975 480.672,29.968 C479.951996,30.4640025 479.592,31.1599955 479.592,32.056 C479.592,32.5360024 479.711999,32.9439983 479.952,33.28 C480.192,33.6160017 480.527998,33.9199986 480.96,34.192 C481.392002,34.4640014 481.895997,34.7199988 482.472,34.96 C483.048003,35.2000012 483.671997,35.4639986 484.344,35.752 L488.376,37.384 C490.29601,38.1520038 491.807994,39.2079933 492.912,40.552 C494.016006,41.8960067 494.568,43.671989 494.568,45.88 C494.568,47.1920066 494.304003,48.4319942 493.776,49.6 C493.247997,50.7680058 492.480005,51.7919956 491.472,52.672 C490.463995,53.5520044 489.224007,54.2559974 487.752,54.784 C486.279993,55.3120026 484.616009,55.576 482.76,55.576 Z" id="Indie-hackers" fill="#0E2439"></path>
                    <rect id="Rectangle" fill="#0E2439" fill-rule="nonzero" x="0" y="0" width="130" height="75"></rect>
                    <path d="M34.1435238,55.576 C31.9675129,55.576 29.9915327,55.2080037 28.2155238,54.472 C26.4395149,53.7359963 24.9195301,52.672007 23.6555238,51.28 C22.3915175,49.887993 21.4075273,48.1760102 20.7035238,46.144 C19.9995203,44.1119898 19.6475238,41.8160128 19.6475238,39.256 C19.6475238,36.6959872 19.9995203,34.41601 20.7035238,32.416 C21.4075273,30.41599 22.3915175,28.7360068 23.6555238,27.376 C24.9195301,26.0159932 26.4395149,24.9840035 28.2155238,24.28 C29.9915327,23.5759965 31.9675129,23.224 34.1435238,23.224 C36.2875345,23.224 38.2555148,23.5759965 40.0475238,24.28 C41.8395328,24.9840035 43.3675175,26.0239931 44.6315238,27.4 C45.8955301,28.7760069 46.8795203,30.4559901 47.5835238,32.44 C48.2875273,34.4240099 48.6395238,36.6959872 48.6395238,39.256 C48.6395238,41.8160128 48.2875273,44.1119898 47.5835238,46.144 C46.8795203,48.1760102 45.8955301,49.887993 44.6315238,51.28 C43.3675175,52.672007 41.8395328,53.7359963 40.0475238,54.472 C38.2555148,55.2080037 36.2875345,55.576 34.1435238,55.576 Z M34.1435238,48.472 C36.0315332,48.472 37.5115184,47.6480082 38.5835238,46 C39.6555292,44.3519918 40.1915238,42.1040142 40.1915238,39.256 C40.1915238,36.4079858 39.6555292,34.2080078 38.5835238,32.656 C37.5115184,31.1039922 36.0315332,30.328 34.1435238,30.328 C32.2555144,30.328 30.7755292,31.1039922 29.7035238,32.656 C28.6315184,34.2080078 28.0955238,36.4079858 28.0955238,39.256 C28.0955238,42.1040142 28.6315184,44.3519918 29.7035238,46 C30.7755292,47.6480082 32.2555144,48.472 34.1435238,48.472 Z M55.7075238,55 L55.7075238,23.8 L63.9635238,23.8 L63.9635238,35.416 L64.1555238,35.416 L72.0275238,23.8 L81.0515238,23.8 L71.7395238,36.472 L82.8755238,55 L73.8515238,55 L66.9395238,43 L63.9635238,47.224 L63.9635238,55 L55.7075238,55 Z M99.4475238,55.576 C97.4635139,55.576 95.5675238,55.2480033 93.7595238,54.592 C91.9515148,53.9359967 90.3675306,52.9440066 89.0075238,51.616 C87.647517,50.2879934 86.5675238,48.62401 85.7675238,46.624 C84.9675198,44.62399 84.5675238,42.2960133 84.5675238,39.64 C84.5675238,37.0159869 84.9835196,34.6880102 85.8155238,32.656 C86.647528,30.6239898 87.7595168,28.912007 89.1515238,27.52 C90.5435308,26.127993 92.1435148,25.0640037 93.9515238,24.328 C95.7595328,23.5919963 97.6555139,23.224 99.6395238,23.224 C101.719534,23.224 103.575516,23.6319959 105.207524,24.448 C106.839532,25.2640041 108.215518,26.2319944 109.335524,27.352 L105.015524,32.632 C104.24752,31.9599966 103.455528,31.4080022 102.639524,30.976 C101.82352,30.5439978 100.887529,30.328 99.8315238,30.328 C98.9035192,30.328 98.0315279,30.5359979 97.2155238,30.952 C96.3995197,31.3680021 95.6795269,31.9599962 95.0555238,32.728 C94.4315207,33.4960038 93.9355256,34.4399944 93.5675238,35.56 C93.199522,36.6800056 93.0155238,37.943993 93.0155238,39.352 C93.0155238,42.2960147 93.6315176,44.5519922 94.8635238,46.12 C96.09553,47.6880078 97.7195137,48.472 99.7355238,48.472 C100.95153,48.472 102.031519,48.2080026 102.975524,47.68 C103.919529,47.1519974 104.72752,46.5200037 105.399524,45.784 L109.719524,50.968 C108.375517,52.5040077 106.831533,53.6559962 105.087524,54.424 C103.343515,55.1920038 101.463534,55.576 99.4475238,55.576 Z" id="OKC" fill="#FFFFFF"></path>
                </g>
                <g id="Mark"></g>
            </g>
        </g>
    </g>
</svg>